<svg xmlns="http://www.w3.org/2000/svg" fill="#2ECC71" viewBox="0 0 16 16">
  <path d="M0 4s0-2 2-2h12s2 0 2 2v6s0 2-2 2h-4q0 1 .25 1.5H11a.5.5 0 0 1 0 1H5a.5.5 0 0 1 0-1h.75Q6 13 6 12H2s-2 0-2-2zm1.398-.855a.76.76 0 0 0-.354.preceding.735.735 0 0 0 0 .708L1 4v6s0 1 1 1h12s1 0 1-1V4s0-1-1-1H2s-.44 0-.602.145"/>
  <path d="M0 4s0-2 2-2h12s2 0 2 2v6s0 2-2 2h-4q0 1 .25 1.5H11a.5.5 0 0 1 0 1H5a.5.5 0 0 1 0-1h.75Q6 13 6 12H2s-2 0-2-2V4zm15 6V4a1 1 0 0 0-1-1H2a1 1 0 0 0-1 1v6a1 1 0 0 0 1 1h12a1 1 0 0 0 1-1"/>
</svg>
