<svg xmlns="http://www.w3.org/2000/svg" width="16" height="16" fill="#E8A838" viewBox="0 0 16 16">
  <path d="M2 1a1 1 0 0 0-1 1v12a1 1 0 0 0 1 1h12a1 1 0 0 0 1-1V2a1 1 0 0 0-1-1H2zm0-1h12a2 2 0 0 1 2 2v12a2 2 0 0 1-2 2H2a2 2 0 0 1-2-2V2a2 2 0 0 1 2-2z"/>
  <path d="M4 3h8a.5.5 0 0 1 0 1H4a.5.5 0 0 1 0-1zm0 2h8a.5.5 0 0 1 0 1H4a.5.5 0 0 1 0-1zm0 2h8a.5.5 0 0 1 0 1H4a.5.5 0 0 1 0-1zm0 2h8a.5.5 0 0 1 0 1H4a.5.5 0 0 1 0-1zm0 2h5a.5.5 0 0 1 0 1H4a.5.5 0 0 1 0-1z"/>
  <path d="M11.5 10a1.5 1.5 0 1 1-3 0 1.5 1.5 0 0 1 3 0zm-1-4.5a.5.5 0 0 0-1 0V10h1V5.5z"/>
</svg>
